<svg xmlns="http://www.w3.org/2000/svg" xmlns:xlink="http://www.w3.org/1999/xlink" viewBox="0 0 149 41"><path d="M 27.9 0.625 L 28.37 2.017 C 32.097 13.035 32.503 21.002 30.79 26.706 C 29.072 32.433 25.234 35.818 20.63 37.694 C 16.06 39.556 12.696 39.665 10.451 39.287 C 9.76 39.175 9.083 38.991 8.43 38.737 C 6.264 39.763 3.941 40.453 1.502 40.625 L 1.408 39.294 C 11.27 38.598 18.73 29.619 21.843 20.884 C 21.917 20.698 21.883 20.486 21.755 20.332 C 21.627 20.178 21.425 20.106 21.228 20.144 C 21.031 20.183 20.871 20.326 20.811 20.517 C 19.5 24.197 17.386 28.099 14.319 31.36 C 14.809 29.669 15.039 27.712 14.725 25.56 C 14.681 25.26 14.402 25.053 14.103 25.098 C 13.803 25.142 13.596 25.42 13.64 25.72 C 14.036 28.42 13.499 30.791 12.683 32.674 C 11.869 34.551 8.704 35.957 6.84 36.784 L 6.638 36.874 C 5.3 32.186 5.614 28.418 6.944 25.234 C 8.354 21.858 10.891 19.186 13.688 16.786 C 14.912 15.736 16.183 14.745 17.454 13.753 C 19.048 12.509 20.643 11.265 22.142 9.907 C 24.715 7.578 26.746 5.101 27.533 2.047 L 27.9 0.626 Z" fill="rgb(93,146,124)"/><path d="M 6.156 8.17 L 5.509 7.607 L 5.724 8.437 C 6.185 10.223 5.764 12.048 4.975 13.945 C 4.513 15.055 3.931 16.159 3.342 17.273 C 1.902 19.999 0.43 22.787 0.625 25.879 C 0.757 27.987 1.737 30.105 4.11 32.232 L 4.576 32.65 C 4.336 26.252 7.236 19.972 12.642 16.386 L 12.486 16.163 C 12.164 15.695 11.85 15.221 11.543 14.743 C 10.282 12.803 8.725 10.411 6.156 8.171 Z" fill="rgb(93,146,124)"/><path d="M 53.695 13.622 C 53.096 13.334 52.439 13.188 51.774 13.195 L 45.348 13.195 L 45.348 28.352 L 48.294 28.352 L 48.294 23.272 L 51.881 23.272 C 52.834 23.272 53.66 23.029 54.357 22.545 C 55.052 22.064 55.616 21.419 56.001 20.667 C 56.399 19.898 56.599 19.087 56.599 18.233 C 56.599 17.607 56.478 16.995 56.236 16.397 C 55.994 15.799 55.647 15.25 55.211 14.775 C 54.787 14.294 54.272 13.902 53.695 13.622 Z M 52.671 20.389 C 52.386 20.589 52.066 20.689 51.71 20.689 L 48.294 20.689 L 48.294 15.779 L 51.582 15.779 C 51.938 15.779 52.265 15.871 52.564 16.056 C 52.877 16.241 53.126 16.518 53.311 16.888 C 53.511 17.258 53.61 17.707 53.61 18.233 C 53.61 18.717 53.525 19.151 53.354 19.535 C 53.183 19.905 52.955 20.19 52.671 20.389 Z" fill="rgb(41,48,58)"/><path d="M 59.29 27.818 C 58.806 27.334 58.564 26.651 58.564 25.768 L 58.564 12.768 L 61.424 12.768 L 61.424 24.766 C 61.424 25.278 61.51 25.626 61.68 25.812 C 61.851 25.982 62.086 26.068 62.385 26.068 C 62.612 26.068 62.847 26.039 63.089 25.982 C 63.331 25.926 63.545 25.854 63.729 25.769 L 64.114 27.946 C 63.686 28.145 63.234 28.289 62.769 28.373 C 62.257 28.473 61.794 28.523 61.382 28.523 C 60.485 28.523 59.788 28.288 59.289 27.818 Z M 65.971 30.679 C 65.736 30.631 65.501 30.581 65.267 30.529 L 65.267 33.006 C 65.537 33.091 65.787 33.148 66.014 33.176 C 66.242 33.219 66.469 33.241 66.697 33.241 C 67.337 33.241 67.914 33.12 68.427 32.878 C 68.953 32.65 69.387 32.33 69.728 31.918 C 70.084 31.518 70.348 31.07 70.518 30.572 L 75.215 17.166 L 72.482 17.166 L 69.835 25.427 L 66.825 17.166 L 63.858 17.166 L 68.277 28.352 C 68.092 28.978 67.914 29.462 67.743 29.804 C 67.573 30.159 67.394 30.401 67.209 30.53 C 67.039 30.672 66.818 30.743 66.547 30.743 C 66.391 30.743 66.199 30.722 65.971 30.679 Z" fill="rgb(41,48,58)"/><path d="M 100.469 28.117 C 101.194 28.416 102.006 28.565 102.902 28.565 C 103.728 28.565 104.482 28.445 105.165 28.203 C 105.815 27.966 106.416 27.612 106.937 27.157 C 107.431 26.74 107.831 26.223 108.111 25.641 L 105.656 24.958 C 105.471 25.413 105.122 25.783 104.61 26.068 C 104.119 26.336 103.568 26.476 103.009 26.473 C 102.511 26.473 102.041 26.367 101.6 26.153 C 101.168 25.92 100.801 25.583 100.533 25.171 C 100.262 24.744 100.099 24.246 100.042 23.677 L 108.688 23.677 C 108.702 23.563 108.716 23.421 108.73 23.25 C 108.744 23.065 108.752 22.887 108.752 22.716 C 108.752 21.706 108.517 20.766 108.047 19.898 C 107.597 19.021 106.909 18.289 106.062 17.785 C 105.194 17.244 104.148 16.974 102.924 16.974 C 101.714 16.974 100.661 17.244 99.764 17.784 C 98.902 18.29 98.193 19.02 97.714 19.898 C 97.245 20.781 97.01 21.756 97.01 22.823 C 97.01 23.591 97.145 24.324 97.416 25.022 C 97.698 25.702 98.103 26.324 98.611 26.858 C 99.141 27.397 99.772 27.825 100.469 28.118 Z M 105.336 20.389 C 105.606 20.802 105.77 21.293 105.827 21.862 L 99.977 21.862 C 100.035 21.293 100.191 20.802 100.447 20.389 C 100.699 19.98 101.052 19.642 101.472 19.407 C 101.902 19.164 102.388 19.039 102.881 19.044 C 103.381 19.037 103.874 19.163 104.311 19.407 C 104.737 19.633 105.092 19.973 105.336 20.389 Z M 109.939 25.043 C 109.939 24.317 110.138 23.683 110.537 23.143 C 110.95 22.588 111.519 22.161 112.245 21.863 C 112.971 21.563 113.803 21.414 114.742 21.414 C 115.212 21.414 115.689 21.449 116.173 21.521 C 116.657 21.591 117.076 21.706 117.432 21.862 L 117.432 21.265 C 117.432 20.553 117.219 20.005 116.792 19.621 C 116.379 19.237 115.76 19.044 114.935 19.044 C 114.323 19.044 113.739 19.151 113.184 19.364 C 112.567 19.611 111.98 19.926 111.434 20.304 L 110.516 18.425 C 111.217 17.96 111.978 17.594 112.778 17.337 C 113.573 17.093 114.401 16.971 115.233 16.974 C 116.827 16.974 118.066 17.372 118.948 18.169 C 119.845 18.966 120.293 20.105 120.293 21.585 L 120.293 25.15 C 120.293 25.449 120.343 25.662 120.442 25.79 C 120.556 25.918 120.734 25.997 120.976 26.025 L 120.976 28.352 C 120.72 28.395 120.485 28.43 120.272 28.459 C 120.072 28.487 119.902 28.501 119.759 28.501 C 119.19 28.501 118.756 28.373 118.457 28.117 C 118.179 27.872 117.991 27.541 117.923 27.177 L 117.859 26.602 C 117.38 27.224 116.757 27.722 116.045 28.053 C 115.352 28.387 114.593 28.562 113.824 28.565 C 113.084 28.565 112.416 28.416 111.818 28.117 C 111.255 27.823 110.777 27.389 110.43 26.857 C 110.101 26.31 109.931 25.682 109.939 25.043 Z M 116.899 25.619 C 117.055 25.449 117.183 25.278 117.283 25.107 C 117.373 24.966 117.424 24.804 117.432 24.637 L 117.432 23.506 C 117.075 23.359 116.703 23.252 116.322 23.186 C 115.951 23.104 115.571 23.061 115.191 23.058 C 114.451 23.058 113.839 23.221 113.355 23.548 C 112.885 23.862 112.65 24.282 112.65 24.808 C 112.65 25.093 112.729 25.363 112.885 25.619 C 113.042 25.876 113.269 26.082 113.568 26.239 C 113.867 26.395 114.223 26.473 114.636 26.473 C 115.066 26.473 115.493 26.393 115.895 26.239 C 116.264 26.095 116.605 25.885 116.899 25.619 Z" fill="rgb(41,48,58)"/><path d="M 126.275 25.812 C 126.104 25.627 126.019 25.278 126.019 24.766 L 126.019 12.768 L 123.158 12.768 L 123.158 25.768 C 123.158 26.651 123.4 27.334 123.884 27.818 C 124.382 28.288 125.079 28.523 125.976 28.523 C 126.389 28.523 126.851 28.473 127.364 28.373 C 127.876 28.273 128.324 28.131 128.709 27.946 L 128.324 25.769 C 128.118 25.861 127.904 25.933 127.684 25.982 C 127.453 26.038 127.217 26.067 126.979 26.068 C 126.681 26.068 126.446 25.982 126.275 25.812 Z M 136.747 27.776 C 136.505 27.876 136.213 27.989 135.871 28.117 C 135.511 28.25 135.139 28.35 134.761 28.416 C 134.376 28.502 133.982 28.544 133.587 28.544 C 133.089 28.55 132.596 28.456 132.135 28.267 C 131.7 28.087 131.329 27.782 131.068 27.391 C 130.812 26.979 130.684 26.445 130.684 25.791 L 130.684 19.365 L 129.211 19.365 L 129.211 17.165 L 130.684 17.165 L 130.684 13.537 L 133.544 13.537 L 133.544 17.166 L 135.893 17.166 L 135.893 19.365 L 133.544 19.365 L 133.544 24.83 C 133.559 25.214 133.665 25.491 133.865 25.662 C 134.064 25.833 134.313 25.918 134.612 25.918 C 134.911 25.918 135.202 25.868 135.487 25.768 C 135.772 25.669 135.999 25.584 136.17 25.513 Z M 145.473 20.133 C 145.815 20.56 145.986 21.208 145.986 22.076 L 145.986 28.352 L 148.846 28.352 L 148.846 21.372 C 148.846 20.816 148.796 20.282 148.697 19.77 C 148.608 19.271 148.427 18.794 148.163 18.361 C 147.907 17.934 147.538 17.587 147.096 17.358 C 146.64 17.102 146.05 16.974 145.324 16.974 C 144.484 16.974 143.709 17.173 142.997 17.571 C 142.293 17.962 141.71 18.537 141.31 19.236 L 141.31 12.768 L 138.45 12.768 L 138.45 28.352 L 141.31 28.352 L 141.31 21.82 C 141.453 21.364 141.673 20.966 141.972 20.624 C 142.266 20.284 142.621 20.002 143.018 19.792 C 143.403 19.592 143.765 19.492 144.107 19.492 C 144.691 19.492 145.146 19.706 145.473 20.133 Z M 94.805 13.195 L 94.805 28.352 L 91.88 28.352 L 91.88 21.884 L 85.006 21.884 L 85.006 28.352 L 82.06 28.352 L 82.06 13.195 L 85.006 13.195 L 85.006 19.322 L 91.88 19.322 L 91.88 13.195 Z" fill="rgb(41,48,58)"/></svg>